<svg width="128" height="225" viewBox="0 0 128 225" fill="none" xmlns="http://www.w3.org/2000/svg">
<path id="Vector" d="M124.045 187.201C122.982 187.25 121.93 186.971 121.031 186.401C120.133 185.83 119.43 184.997 119.02 184.014C118.61 183.03 118.511 181.944 118.737 180.902C118.963 179.861 119.504 178.914 120.285 178.19C120.416 177.669 120.509 177.295 120.64 176.774C120.593 176.661 120.546 176.547 120.499 176.434C115.723 165.021 99.535 165.1 94.7993 176.53C90.596 186.675 85.2445 196.837 83.9268 207.563C83.3465 212.304 83.5913 217.11 84.6503 221.768C74.7779 200.187 69.6514 176.732 69.6184 152.992C69.6164 147.035 69.9466 141.082 70.6078 135.162C71.1542 130.308 71.9122 125.489 72.8818 120.705C78.1733 94.7456 89.5341 70.4143 106.031 49.7093C114.016 45.3435 120.474 38.63 124.533 30.4733C126.004 27.5413 127.044 24.4113 127.619 21.1808C126.719 21.2992 125.803 21.3732 124.903 21.4323C124.622 21.4471 124.327 21.4618 124.046 21.4767L123.94 21.4815C122.95 21.526 121.969 21.2828 121.113 20.7812C120.258 20.2797 119.566 19.5411 119.12 18.6544C118.674 17.7677 118.493 16.7707 118.599 15.7834C118.705 14.7961 119.094 13.8607 119.719 13.0897C120.108 12.6101 120.497 12.1307 120.886 11.6516C121.477 10.9117 122.082 10.1866 122.673 9.44687C122.741 9.37659 122.805 9.30243 122.865 9.2248C123.544 8.38136 124.223 7.55278 124.903 6.70933C123.663 4.78091 121.995 3.16554 120.03 1.98919C113.223 -2.00597 103.831 0.761035 98.9142 6.93135C93.9824 13.1016 93.0522 21.7579 94.765 29.467C96.227 36.0665 99.4163 42.1184 103.004 47.8743C102.635 48.3479 102.251 48.8066 101.882 49.2801C95.1341 57.9755 89.2526 67.3127 84.3221 77.1578C85.717 66.2386 83.6576 53.084 80.1466 44.6043C76.1499 34.9427 68.6589 26.8056 62.062 18.4531C54.1382 8.42053 37.8895 12.799 36.4935 25.5169C36.48 25.64 36.4668 25.7631 36.4539 25.8862C37.4338 26.4401 38.393 27.0281 39.3314 27.65C40.5103 28.4393 41.4239 29.5672 41.9523 30.8856C42.4806 32.2041 42.5993 33.6518 42.2926 35.039C41.9859 36.4262 41.2682 37.6882 40.2335 38.6597C39.1988 39.6312 37.8954 40.2668 36.4941 40.4833L36.3506 40.5055C36.6997 44.0444 37.3167 47.5515 38.1963 50.9966C40.7452 60.6142 45.2493 69.6005 51.4263 77.392C57.6033 85.1835 65.32 91.6122 74.0925 96.2752C74.6684 96.5711 75.2296 96.867 75.8055 97.1482C70.8518 111.216 67.7446 125.869 66.5619 140.74C65.8924 149.513 65.9319 158.326 66.6801 167.093C66.6653 166.99 66.6505 166.886 66.6357 166.782C64.7455 157.034 59.556 148.238 51.9435 141.879C40.637 132.572 24.663 129.145 12.4654 121.663C6.59375 118.062 -0.930305 122.716 0.0944528 129.538C0.110823 129.646 0.127446 129.755 0.144335 129.864C1.96265 130.606 3.73306 131.461 5.44529 132.424C6.42514 132.978 7.38429 133.566 8.32274 134.188C9.50168 134.977 10.4152 136.105 10.9436 137.423C11.472 138.742 11.5906 140.19 11.2839 141.577C10.9772 142.964 10.2595 144.226 9.22482 145.198C8.19016 146.169 6.88677 146.805 5.48545 147.021L5.34184 147.043C5.23851 147.058 5.14987 147.073 5.04667 147.088C8.1535 154.522 12.514 161.364 17.9373 167.315C24.6369 174.519 32.7342 180.276 41.7328 184.232C50.7314 188.189 60.4417 190.262 70.2682 190.324H70.283C72.9504 201.94 76.8153 213.246 81.8153 224.061H123.012C123.16 223.603 123.293 223.129 123.426 222.67C119.613 222.911 115.784 222.682 112.026 221.99C115.083 218.231 118.14 214.443 121.196 210.685C121.264 210.615 121.328 210.541 121.388 210.463C122.939 208.539 124.504 206.631 126.054 204.707L126.055 204.705C126.138 198.808 125.463 192.926 124.046 187.202L124.045 187.201Z" fill="#F2F2F2"/>
</svg>
