<svg width="615" height="445" viewBox="0 0 615 445" fill="none" xmlns="http://www.w3.org/2000/svg">
<g clip-path="url(#clip0_861_271)">
<path d="M124.045 273.201C122.982 273.25 121.93 272.971 121.031 272.401C120.133 271.83 119.43 270.997 119.02 270.014C118.61 269.03 118.511 267.944 118.737 266.902C118.963 265.861 119.504 264.914 120.285 264.19C120.416 263.669 120.509 263.295 120.64 262.774C120.593 262.661 120.546 262.547 120.499 262.434C115.723 251.021 99.535 251.1 94.7993 262.53C90.596 272.675 85.2445 282.837 83.9268 293.563C83.3465 298.304 83.5913 303.11 84.6503 307.768C74.7779 286.187 69.6514 262.732 69.6184 238.992C69.6164 233.035 69.9466 227.082 70.6078 221.162C71.1542 216.308 71.9122 211.489 72.8818 206.705C78.1733 180.746 89.5341 156.414 106.031 135.709C114.016 131.344 120.474 124.63 124.533 116.473C126.004 113.541 127.044 110.411 127.619 107.181C126.719 107.299 125.803 107.373 124.903 107.432C124.622 107.447 124.327 107.462 124.046 107.477L123.94 107.481C122.95 107.526 121.969 107.283 121.113 106.781C120.258 106.28 119.566 105.541 119.12 104.654C118.674 103.768 118.493 102.771 118.599 101.783C118.705 100.796 119.094 99.8607 119.719 99.0897C120.108 98.6101 120.497 98.1307 120.886 97.6516C121.477 96.9117 122.082 96.1866 122.673 95.4469C122.741 95.3766 122.805 95.3024 122.865 95.2248C123.544 94.3814 124.223 93.5528 124.903 92.7093C123.663 90.7809 121.995 89.1655 120.03 87.9892C113.223 83.994 103.831 86.761 98.9142 92.9314C93.9824 99.1016 93.0522 107.758 94.765 115.467C96.227 122.066 99.4163 128.118 103.004 133.874C102.635 134.348 102.251 134.807 101.882 135.28C95.1341 143.976 89.2526 153.313 84.3221 163.158C85.717 152.239 83.6576 139.084 80.1466 130.604C76.1499 120.943 68.6589 112.806 62.062 104.453C54.1382 94.4205 37.8895 98.799 36.4935 111.517C36.48 111.64 36.4668 111.763 36.4539 111.886C37.4338 112.44 38.393 113.028 39.3314 113.65C40.5103 114.439 41.4239 115.567 41.9523 116.886C42.4806 118.204 42.5993 119.652 42.2926 121.039C41.9859 122.426 41.2682 123.688 40.2335 124.66C39.1988 125.631 37.8954 126.267 36.4941 126.483L36.3506 126.506C36.6997 130.044 37.3167 133.551 38.1963 136.997C40.7452 146.614 45.2493 155.6 51.4263 163.392C57.6033 171.183 65.32 177.612 74.0925 182.275C74.6684 182.571 75.2296 182.867 75.8055 183.148C70.8518 197.216 67.7446 211.869 66.5619 226.74C65.8924 235.513 65.9319 244.326 66.6801 253.093C66.6653 252.99 66.6505 252.886 66.6357 252.782C64.7455 243.034 59.556 234.238 51.9435 227.879C40.637 218.572 24.663 215.145 12.4654 207.663C6.59375 204.062 -0.930305 208.716 0.0944528 215.538C0.110823 215.646 0.127446 215.755 0.144335 215.864C1.96265 216.606 3.73306 217.461 5.44529 218.424C6.42514 218.978 7.38429 219.566 8.32274 220.188C9.50168 220.977 10.4152 222.105 10.9436 223.423C11.472 224.742 11.5906 226.19 11.2839 227.577C10.9772 228.964 10.2595 230.226 9.22482 231.198C8.19016 232.169 6.88677 232.805 5.48545 233.021L5.34184 233.043C5.23851 233.058 5.14987 233.073 5.04667 233.088C8.1535 240.522 12.514 247.364 17.9373 253.315C24.6369 260.519 32.7342 266.276 41.7328 270.232C50.7314 274.189 60.4417 276.262 70.2682 276.324H70.283C72.9504 287.94 76.8153 299.246 81.8153 310.061H123.012C123.16 309.603 123.293 309.129 123.426 308.67C119.613 308.911 115.784 308.682 112.026 307.99C115.083 304.231 118.14 300.443 121.196 296.685C121.264 296.615 121.328 296.541 121.388 296.463C122.939 294.539 124.504 292.631 126.054 290.707L126.055 290.705C126.138 284.808 125.463 278.926 124.046 273.202L124.045 273.201Z" fill="#F2F2F2"/>
<path d="M614.026 311.631L1.18085 311.883C0.922385 311.883 0.674504 311.78 0.491739 311.597C0.308973 311.414 0.206299 311.166 0.206299 310.907C0.206299 310.648 0.308973 310.399 0.491739 310.216C0.674504 310.033 0.922385 309.93 1.18085 309.93L614.026 309.678C614.284 309.678 614.532 309.781 614.715 309.964C614.898 310.147 615 310.396 615 310.655C615 310.914 614.898 311.162 614.715 311.345C614.532 311.528 614.284 311.631 614.026 311.631Z" fill="#CACACA"/>
<path d="M519.586 311.013C491.681 312.195 475.903 311.335 455.561 293.641C441.712 293.272 430.703 283.235 431.02 271.268C431.338 259.3 442.864 249.864 456.713 250.233L506.999 252.622C520.848 252.991 546.604 252.138 546.287 264.105C546.131 269.981 546.128 277.601 545.584 285.583C545.136 292.286 542.236 298.588 537.438 303.28C532.641 307.973 526.284 310.726 519.586 311.013Z" fill="#2F2E41"/>
<path d="M429.956 423.038L415.548 425.397L399.612 370.831L420.877 367.349L429.956 423.038Z" fill="#FFB6B6"/>
<path d="M424.231 309.257C451.094 315.876 470.929 308.422 487.266 309.388C496.553 293.685 526.198 273.739 510.023 265.343C501.016 260.667 409.447 249.889 397.426 262.329C366.516 294.317 404.894 395.337 404.894 395.337L426.24 395.061L433.059 385.307L427.566 374.676L432.762 365.984L426.815 357.03L424.231 309.257Z" fill="#2F2E41"/>
<path d="M439.866 433.941L430.427 436.473L426.356 427.995L424.427 438.083L399.392 444.801C398.192 445.123 396.921 445.052 395.764 444.599C394.607 444.145 393.624 443.333 392.96 442.281C392.297 441.229 391.986 439.992 392.073 438.75C392.161 437.508 392.642 436.327 393.447 435.379L409.742 416.178L407.33 407.15L428.694 402.765L439.866 433.941Z" fill="#2F2E41"/>
<path d="M548.028 405.254L537.512 415.402L493.446 379.59L508.965 364.612L548.028 405.254Z" fill="#FFB6B6"/>
<path d="M463.263 292.424C487.888 301.929 509.424 291.359 530.701 279.107C529.432 260.897 528.724 234.641 510.654 236.948C500.591 238.233 417.42 252.005 414.588 269.088C407.306 313.013 511.694 396.742 511.694 396.742L529.098 384.355L529.175 372.445L518.625 366.828L517.969 356.717L507.997 352.739L463.263 292.424Z" fill="#2F2E41"/>
<path d="M562.365 408.578L556.036 416.039L547.877 411.383L552.014 420.781L535.229 440.569C534.424 441.518 533.338 442.184 532.129 442.47C530.92 442.757 529.651 442.648 528.508 442.161C527.365 441.673 526.407 440.832 525.775 439.761C525.143 438.689 524.868 437.443 524.993 436.205L527.506 411.126L520.399 405.073L535.488 389.294L562.365 408.578Z" fill="#2F2E41"/>
<path d="M450.28 256.196C448.546 256.196 447.56 255.855 447.179 255.124C446.619 254.051 443.045 252.65 444.169 251.026C444.954 249.895 446.847 248.38 446.118 247.508C443.31 244.148 436.3 147.768 434.648 134.62C434.242 130.55 434.792 126.442 436.255 122.624C440.883 109.484 447.2 105.446 459.784 97.4019C460.806 96.7488 461.87 96.0667 462.976 95.3556C464.406 94.4343 464.327 96.5859 464.242 93.3512C464.149 89.7561 464.052 86.0382 465.809 83.7145L465.924 83.563L466.108 83.52C470.359 82.5352 484.657 80.707 493.124 83.5333L493.241 83.5732L493.329 83.6602C495.34 85.6758 495.523 89.58 495.701 93.3553C495.846 96.4549 495.983 94.1753 497.121 95.4467C501.471 100.305 508.025 103.113 513.491 104.706C516.918 105.692 519.919 107.796 522.017 110.684C524.116 113.572 525.194 117.079 525.079 120.65C524.486 138.637 524.952 167.08 521.888 187.123C516.789 220.482 563.342 268.657 536.678 269.647C536.746 269.752 536.784 269.873 536.788 269.998C536.791 270.123 536.761 270.247 536.7 270.355C534.797 273.919 456.818 256.196 450.28 256.196Z" fill="#E6E6E6"/>
<path d="M477.266 80.8423C494.819 80.8423 509.049 66.5825 509.049 48.9922C509.049 31.4019 494.819 17.1421 477.266 17.1421C459.712 17.1421 445.482 31.4019 445.482 48.9922C445.482 66.5825 459.712 80.8423 477.266 80.8423Z" fill="#2F2E41"/>
<path d="M479.825 83.4712C492.434 83.1131 502.367 72.5792 502.01 59.943C501.652 47.3067 491.141 37.3533 478.531 37.7113C465.921 38.0694 455.988 48.6033 456.345 61.2396C456.703 73.8758 467.215 83.8292 479.825 83.4712Z" fill="#FFB6B6"/>
<path d="M479.398 25.6839L470.139 25.9468C464.304 26.1172 458.775 28.6006 454.765 32.8518C450.755 37.103 448.592 42.7748 448.75 48.6225L448.756 48.828L448.925 48.9339C453.957 52.2708 459.898 53.9645 465.93 53.7823L466.45 53.7675L471.566 53.5353C472.427 51.3147 472.715 48.9124 472.403 46.5509C473.176 48.7895 473.779 51.0833 474.207 53.4128L497.163 52.3655C498.499 52.2992 499.756 51.7125 500.666 50.7306C501.576 49.7487 502.067 48.4492 502.034 47.1095C501.862 41.2622 499.382 35.7223 495.138 31.7054C490.895 27.6885 485.234 25.5229 479.398 25.6839Z" fill="#2F2E41"/>
<path d="M460.947 19.9404C458.857 22.523 455.502 23.5991 452.486 24.9978C447.166 27.5189 442.541 31.3023 439.01 36.02C435.479 40.7377 433.15 46.2473 432.224 52.071C431.514 56.8133 431.762 61.6945 430.559 66.3321C429.364 70.9696 426.211 75.5756 421.525 76.5076C418.354 77.1434 415.125 76.0011 412.094 74.8691C410.426 74.252 408.759 73.6323 407.092 73.0099C408.689 68.6379 410.284 64.266 411.875 59.8941C409.236 64.0523 406.138 67.8999 402.641 71.3645C396.666 69.1454 390.686 66.9264 384.701 64.7076C399.262 64.3495 396.377 50.2571 399.232 35.9542C400.802 28.0947 415.898 22.3744 418.677 14.8603C420.178 10.7848 422.813 7.2257 426.27 4.60408C429.727 1.98245 433.861 0.408111 438.182 0.0673711C442.504 -0.273369 446.833 0.633766 450.656 2.6814C454.48 4.72904 457.638 7.83145 459.757 11.6215C462.78 12.73 462.998 17.3906 460.947 19.9404Z" fill="#2F2E41"/>
<path d="M462.403 29.4128C468.939 29.4128 474.238 24.1029 474.238 17.5528C474.238 11.0027 468.939 5.69287 462.403 5.69287C455.867 5.69287 450.568 11.0027 450.568 17.5528C450.568 24.1029 455.867 29.4128 462.403 29.4128Z" fill="#2F2E41"/>
<path d="M504.444 200.539H449.805C447.934 200.537 446.14 199.792 444.817 198.466C443.494 197.14 442.75 195.343 442.748 193.468V134.613C442.75 132.738 443.494 130.941 444.817 129.615C446.14 128.289 447.934 127.544 449.805 127.542H504.444C506.315 127.544 508.108 128.289 509.431 129.615C510.754 130.941 511.499 132.738 511.501 134.613V193.468C511.499 195.343 510.754 197.14 509.431 198.466C508.108 199.792 506.315 200.537 504.444 200.539Z" fill="#3F3D56"/>
<path d="M451.342 140.255C453.602 140.255 455.434 138.418 455.434 136.154C455.434 133.889 453.602 132.052 451.342 132.052C449.082 132.052 447.249 133.889 447.249 136.154C447.249 138.418 449.082 140.255 451.342 140.255Z" fill="#E6E6E6"/>
<path d="M451.342 138.614C452.698 138.614 453.797 137.512 453.797 136.153C453.797 134.795 452.698 133.693 451.342 133.693C449.986 133.693 448.886 134.795 448.886 136.153C448.886 137.512 449.986 138.614 451.342 138.614Z" fill="#3F3D56"/>
<path d="M468.503 197.682L430.973 188.145L425.14 207.495C425.14 207.495 465.516 210.492 467.026 210.505C468.154 212.106 469.741 213.325 471.576 214.003C473.411 214.68 475.408 214.783 477.303 214.298C479.198 213.813 480.901 212.763 482.188 211.287C483.474 209.811 484.283 207.978 484.507 206.031C484.731 204.084 484.361 202.115 483.444 200.384C482.527 198.653 481.108 197.242 479.373 196.337C477.638 195.432 475.671 195.076 473.73 195.316C471.789 195.556 469.966 196.381 468.503 197.682Z" fill="#FFB6B6"/>
<path d="M443.458 109.93C416.699 124.26 404.972 156.204 388.554 184.277C388.215 187.344 388.518 190.448 389.445 193.391C390.371 196.334 391.9 199.051 393.934 201.369C395.968 203.686 398.462 205.552 401.256 206.848C404.051 208.145 407.085 208.842 410.164 208.897L442.282 209.638L438.256 189.779L427.513 183.663L440.211 152.881L443.458 109.93Z" fill="#E6E6E6"/>
<path d="M483.125 140.955L508.74 172.103L498.161 188.899C498.161 188.899 472.406 148.55 471.825 147.154C469.921 146.709 468.196 145.695 466.879 144.246C465.562 142.797 464.715 140.982 464.45 139.041C464.185 137.099 464.515 135.122 465.395 133.372C466.276 131.623 467.666 130.182 469.381 129.241C471.096 128.299 473.056 127.902 475.002 128.102C476.947 128.301 478.786 129.088 480.276 130.357C481.766 131.627 482.836 133.32 483.344 135.212C483.853 137.105 483.776 139.107 483.125 140.955Z" fill="#FFB6B6"/>
<path d="M521.732 110.727C529.463 106.446 552.014 172.474 528.284 210.027C525.576 211.497 522.592 212.384 519.523 212.632C516.453 212.88 513.366 212.483 510.458 211.467C507.55 210.451 504.885 208.839 502.635 206.732C500.384 204.626 498.597 202.072 497.388 199.234L485.104 169.107L504.786 162.819L514.185 173.628L512.877 152.124L524.065 121.562L521.732 110.727Z" fill="#E6E6E6"/>
<path d="M277.031 289.106C297.357 289.106 313.835 272.593 313.835 252.224C313.835 231.855 297.357 215.342 277.031 215.342C256.704 215.342 240.226 231.855 240.226 252.224C240.226 272.593 256.704 289.106 277.031 289.106Z" fill="#8CD7D2"/>
<path d="M294.125 249.125C295.385 249.125 296.593 249.625 297.484 250.516C298.375 251.407 298.875 252.615 298.875 253.875V287.125C298.875 288.385 298.375 289.593 297.484 290.484C296.593 291.375 295.385 291.875 294.125 291.875H260.875C259.615 291.875 258.407 291.375 257.516 290.484C256.625 289.593 256.125 288.385 256.125 287.125V253.875C256.125 252.615 256.625 251.407 257.516 250.516C258.407 249.625 259.615 249.125 260.875 249.125H294.125ZM292.938 285.938V273.35C292.938 271.297 292.122 269.327 290.67 267.875C289.218 266.423 287.248 265.607 285.195 265.607C283.176 265.607 280.825 266.842 279.685 268.695V266.059H273.059V285.938H279.685V274.229C279.685 272.4 281.158 270.904 282.986 270.904C283.868 270.904 284.714 271.254 285.337 271.878C285.961 272.501 286.311 273.347 286.311 274.229V285.938H292.938ZM265.34 262.33C266.398 262.33 267.413 261.91 268.161 261.161C268.91 260.413 269.33 259.398 269.33 258.34C269.33 256.131 267.549 254.326 265.34 254.326C264.275 254.326 263.255 254.749 262.502 255.502C261.749 256.255 261.326 257.275 261.326 258.34C261.326 260.549 263.131 262.33 265.34 262.33ZM268.641 285.938V266.059H262.062V285.938H268.641Z" fill="white"/>
<path d="M191.035 183.485C211.361 183.485 227.839 166.973 227.839 146.603C227.839 126.234 211.361 109.722 191.035 109.722C170.708 109.722 154.23 126.234 154.23 146.603C154.23 166.973 170.708 183.485 191.035 183.485Z" fill="#8CD7D2"/>
<path d="M171 184C169.625 184 168.448 183.51 167.468 182.53C166.488 181.55 165.998 180.373 166 179V149C166 147.625 166.49 146.448 167.47 145.468C168.45 144.488 169.627 143.998 171 144H211C212.375 144 213.553 144.49 214.533 145.47C215.513 146.45 216.002 147.627 216 149V179C216 180.375 215.51 181.553 214.53 182.533C213.55 183.513 212.373 184.002 211 184H171ZM191 166.5L211 154V149L191 161.5L171 149V154L191 166.5Z" fill="white"/>
</g>
<defs>
<clipPath id="clip0_861_271">
<rect width="615" height="445" fill="white"/>
</clipPath>
</defs>
</svg>
