<svg width="630" height="493" viewBox="0 0 630 493" fill="none" xmlns="http://www.w3.org/2000/svg">
<g filter="url(#filter0_d_1065_7)">
<rect x="15" y="15" width="345" height="345" fill="#E9C4B1"/>
</g>
<g clip-path="url(#clip0_1065_7)">
<path d="M139.045 321.201C137.982 321.25 136.93 320.971 136.031 320.401C135.133 319.83 134.43 318.997 134.02 318.014C133.61 317.03 133.511 315.944 133.737 314.902C133.963 313.861 134.504 312.914 135.285 312.19C135.416 311.669 135.509 311.295 135.64 310.774C135.593 310.661 135.546 310.547 135.499 310.434C130.723 299.021 114.535 299.1 109.799 310.53C105.596 320.675 100.244 330.837 98.9268 341.563C98.3465 346.304 98.5913 351.11 99.6503 355.768C89.7779 334.187 84.6514 310.732 84.6184 286.992C84.6164 281.035 84.9466 275.082 85.6078 269.162C86.1542 264.308 86.9122 259.489 87.8818 254.705C93.1733 228.746 104.534 204.414 121.031 183.709C129.016 179.344 135.474 172.63 139.533 164.473C141.004 161.541 142.044 158.411 142.619 155.181C141.719 155.299 140.803 155.373 139.903 155.432C139.622 155.447 139.327 155.462 139.046 155.477L138.94 155.481C137.95 155.526 136.969 155.283 136.113 154.781C135.258 154.28 134.566 153.541 134.12 152.654C133.674 151.768 133.493 150.771 133.599 149.783C133.705 148.796 134.094 147.861 134.719 147.09C135.108 146.61 135.497 146.131 135.886 145.652C136.477 144.912 137.082 144.187 137.673 143.447C137.741 143.377 137.805 143.302 137.865 143.225C138.544 142.381 139.223 141.553 139.903 140.709C138.663 138.781 136.995 137.166 135.03 135.989C128.223 131.994 118.831 134.761 113.914 140.931C108.982 147.102 108.052 155.758 109.765 163.467C111.227 170.066 114.416 176.118 118.004 181.874C117.635 182.348 117.251 182.807 116.882 183.28C110.134 191.976 104.253 201.313 99.3221 211.158C100.717 200.239 98.6576 187.084 95.1466 178.604C91.1499 168.943 83.6589 160.806 77.062 152.453C69.1382 142.421 52.8895 146.799 51.4935 159.517C51.48 159.64 51.4668 159.763 51.4539 159.886C52.4338 160.44 53.393 161.028 54.3314 161.65C55.5103 162.439 56.4239 163.567 56.9523 164.886C57.4806 166.204 57.5993 167.652 57.2926 169.039C56.9859 170.426 56.2682 171.688 55.2335 172.66C54.1988 173.631 52.8954 174.267 51.4941 174.483L51.3506 174.506C51.6997 178.044 52.3167 181.551 53.1963 184.997C55.7452 194.614 60.2493 203.6 66.4263 211.392C72.6033 219.183 80.32 225.612 89.0925 230.275C89.6684 230.571 90.2296 230.867 90.8055 231.148C85.8518 245.216 82.7446 259.869 81.5619 274.74C80.8924 283.513 80.9319 292.326 81.6801 301.093C81.6653 300.99 81.6505 300.886 81.6357 300.782C79.7455 291.034 74.556 282.238 66.9435 275.879C55.637 266.572 39.663 263.145 27.4654 255.663C21.5937 252.062 14.0697 256.716 15.0945 263.538C15.1108 263.646 15.1274 263.755 15.1443 263.864C16.9626 264.606 18.7331 265.461 20.4453 266.424C21.4251 266.978 22.3843 267.566 23.3227 268.188C24.5017 268.977 25.4152 270.105 25.9436 271.423C26.472 272.742 26.5906 274.19 26.2839 275.577C25.9772 276.964 25.2595 278.226 24.2248 279.198C23.1902 280.169 21.8868 280.805 20.4855 281.021L20.3418 281.043C20.2385 281.058 20.1499 281.073 20.0467 281.088C23.1535 288.522 27.514 295.364 32.9373 301.315C39.6369 308.519 47.7342 314.276 56.7328 318.232C65.7314 322.189 75.4417 324.262 85.2682 324.324H85.283C87.9504 335.94 91.8153 347.246 96.8153 358.061H138.012C138.16 357.603 138.293 357.129 138.426 356.67C134.613 356.911 130.784 356.682 127.026 355.99C130.083 352.231 133.14 348.443 136.196 344.685C136.264 344.615 136.328 344.541 136.388 344.463C137.939 342.539 139.504 340.631 141.054 338.707L141.055 338.705C141.138 332.808 140.463 326.926 139.046 321.202L139.045 321.201Z" fill="#F2F2F2"/>
<path d="M629.026 359.631L16.1809 359.883C15.9224 359.883 15.6745 359.78 15.4917 359.597C15.309 359.414 15.2063 359.166 15.2063 358.907C15.2063 358.648 15.309 358.399 15.4917 358.216C15.6745 358.033 15.9224 357.93 16.1809 357.93L629.026 357.678C629.284 357.678 629.532 357.781 629.715 357.964C629.898 358.147 630 358.396 630 358.655C630 358.914 629.898 359.162 629.715 359.345C629.532 359.528 629.284 359.631 629.026 359.631Z" fill="#CACACA"/>
<path d="M534.586 359.013C506.681 360.195 490.903 359.335 470.561 341.641C456.712 341.272 445.703 331.235 446.02 319.268C446.338 307.3 457.864 297.864 471.713 298.233L521.999 300.622C535.848 300.991 561.604 300.138 561.287 312.105C561.131 317.981 561.128 325.601 560.584 333.583C560.136 340.286 557.236 346.588 552.438 351.28C547.641 355.973 541.284 358.726 534.586 359.013Z" fill="#2F2E41"/>
<path d="M444.956 471.038L430.548 473.397L414.612 418.831L435.877 415.349L444.956 471.038Z" fill="#FFB6B6"/>
<path d="M439.231 357.257C466.094 363.876 485.929 356.422 502.266 357.388C511.553 341.685 541.198 321.739 525.023 313.343C516.016 308.667 424.447 297.889 412.426 310.329C381.516 342.317 419.894 443.337 419.894 443.337L441.24 443.061L448.059 433.307L442.566 422.676L447.762 413.984L441.815 405.03L439.231 357.257Z" fill="#2F2E41"/>
<path d="M454.866 481.941L445.427 484.473L441.356 475.995L439.427 486.083L414.392 492.801C413.192 493.123 411.921 493.052 410.764 492.599C409.607 492.145 408.624 491.333 407.96 490.281C407.297 489.229 406.986 487.992 407.073 486.75C407.161 485.508 407.642 484.327 408.447 483.379L424.742 464.178L422.33 455.15L443.694 450.765L454.866 481.941Z" fill="#2F2E41"/>
<path d="M563.028 453.254L552.512 463.402L508.446 427.59L523.965 412.612L563.028 453.254Z" fill="#FFB6B6"/>
<path d="M478.263 340.424C502.888 349.929 524.424 339.359 545.701 327.107C544.432 308.897 543.724 282.641 525.654 284.948C515.591 286.233 432.42 300.005 429.588 317.088C422.306 361.013 526.694 444.742 526.694 444.742L544.098 432.355L544.175 420.445L533.625 414.828L532.969 404.717L522.997 400.739L478.263 340.424Z" fill="#2F2E41"/>
<path d="M577.365 456.578L571.036 464.039L562.877 459.383L567.014 468.781L550.229 488.569C549.424 489.518 548.338 490.184 547.129 490.47C545.92 490.757 544.651 490.648 543.508 490.161C542.365 489.673 541.407 488.832 540.775 487.761C540.143 486.689 539.868 485.443 539.993 484.205L542.506 459.126L535.399 453.073L550.488 437.294L577.365 456.578Z" fill="#2F2E41"/>
<path d="M465.28 304.196C463.546 304.196 462.56 303.855 462.179 303.124C461.619 302.051 458.045 300.65 459.169 299.026C459.954 297.895 461.847 296.38 461.118 295.508C458.31 292.148 451.3 195.768 449.648 182.62C449.242 178.55 449.792 174.442 451.255 170.624C455.883 157.484 462.2 153.446 474.784 145.402C475.806 144.749 476.87 144.067 477.976 143.356C479.406 142.434 479.327 144.586 479.242 141.351C479.149 137.756 479.052 134.038 480.809 131.714L480.924 131.563L481.108 131.52C485.359 130.535 499.657 128.707 508.124 131.533L508.241 131.573L508.329 131.66C510.34 133.676 510.523 137.58 510.701 141.355C510.846 144.455 510.983 142.175 512.121 143.447C516.471 148.305 523.025 151.113 528.491 152.706C531.918 153.692 534.919 155.796 537.017 158.684C539.116 161.572 540.194 165.079 540.079 168.65C539.486 186.637 539.952 215.08 536.888 235.123C531.789 268.482 578.342 316.657 551.678 317.647C551.746 317.752 551.784 317.873 551.788 317.998C551.791 318.123 551.761 318.247 551.7 318.355C549.797 321.919 471.818 304.196 465.28 304.196Z" fill="#E6E6E6"/>
<path d="M492.266 128.842C509.819 128.842 524.049 114.583 524.049 96.9922C524.049 79.4019 509.819 65.1421 492.266 65.1421C474.712 65.1421 460.482 79.4019 460.482 96.9922C460.482 114.583 474.712 128.842 492.266 128.842Z" fill="#2F2E41"/>
<path d="M494.825 131.471C507.434 131.113 517.367 120.579 517.01 107.943C516.652 95.3067 506.141 85.3533 493.531 85.7113C480.921 86.0694 470.988 96.6033 471.345 109.24C471.703 121.876 482.215 131.829 494.825 131.471Z" fill="#FFB6B6"/>
<path d="M494.398 73.6839L485.139 73.9468C479.304 74.1172 473.775 76.6006 469.765 80.8518C465.755 85.103 463.592 90.7748 463.75 96.6225L463.756 96.828L463.925 96.9339C468.957 100.271 474.898 101.964 480.93 101.782L481.45 101.768L486.566 101.535C487.427 99.3147 487.715 96.9124 487.403 94.5509C488.176 96.7895 488.779 99.0833 489.207 101.413L512.163 100.365C513.499 100.299 514.756 99.7125 515.666 98.7306C516.576 97.7487 517.067 96.4492 517.034 95.1095C516.862 89.2622 514.382 83.7223 510.138 79.7054C505.895 75.6885 500.234 73.5229 494.398 73.6839Z" fill="#2F2E41"/>
<path d="M475.947 67.9404C473.857 70.523 470.502 71.5991 467.486 72.9978C462.166 75.5189 457.541 79.3023 454.01 84.02C450.479 88.7377 448.15 94.2473 447.224 100.071C446.514 104.813 446.762 109.694 445.559 114.332C444.364 118.97 441.211 123.576 436.525 124.508C433.354 125.143 430.125 124.001 427.094 122.869C425.426 122.252 423.759 121.632 422.092 121.01C423.689 116.638 425.284 112.266 426.875 107.894C424.236 112.052 421.138 115.9 417.641 119.365C411.666 117.145 405.686 114.926 399.701 112.708C414.262 112.35 411.377 98.2571 414.232 83.9542C415.802 76.0947 430.898 70.3744 433.677 62.8603C435.178 58.7848 437.813 55.2257 441.27 52.6041C444.727 49.9825 448.861 48.4081 453.182 48.0674C457.504 47.7266 461.833 48.6338 465.656 50.6814C469.48 52.729 472.638 55.8315 474.757 59.6215C477.78 60.73 477.998 65.3906 475.947 67.9404Z" fill="#2F2E41"/>
<path d="M477.403 77.4128C483.939 77.4128 489.238 72.1029 489.238 65.5528C489.238 59.0027 483.939 53.6929 477.403 53.6929C470.867 53.6929 465.568 59.0027 465.568 65.5528C465.568 72.1029 470.867 77.4128 477.403 77.4128Z" fill="#2F2E41"/>
<path d="M519.444 248.539H464.805C462.934 248.537 461.14 247.792 459.817 246.466C458.494 245.14 457.75 243.343 457.748 241.468V182.613C457.75 180.738 458.494 178.941 459.817 177.615C461.14 176.289 462.934 175.544 464.805 175.542H519.444C521.315 175.544 523.108 176.289 524.431 177.615C525.754 178.941 526.499 180.738 526.501 182.613V241.468C526.499 243.343 525.754 245.14 524.431 246.466C523.108 247.792 521.315 248.537 519.444 248.539Z" fill="#3F3D56"/>
<path d="M466.342 188.255C468.602 188.255 470.434 186.418 470.434 184.154C470.434 181.889 468.602 180.052 466.342 180.052C464.082 180.052 462.249 181.889 462.249 184.154C462.249 186.418 464.082 188.255 466.342 188.255Z" fill="#E6E6E6"/>
<path d="M466.342 186.614C467.698 186.614 468.797 185.512 468.797 184.153C468.797 182.795 467.698 181.693 466.342 181.693C464.986 181.693 463.886 182.795 463.886 184.153C463.886 185.512 464.986 186.614 466.342 186.614Z" fill="#3F3D56"/>
<path d="M483.503 245.682L445.973 236.145L440.14 255.495C440.14 255.495 480.516 258.492 482.026 258.505C483.154 260.106 484.741 261.325 486.576 262.003C488.411 262.68 490.408 262.783 492.303 262.298C494.198 261.813 495.901 260.763 497.188 259.287C498.474 257.811 499.283 255.978 499.507 254.031C499.731 252.084 499.361 250.115 498.444 248.384C497.527 246.653 496.108 245.242 494.373 244.337C492.638 243.432 490.671 243.076 488.73 243.316C486.789 243.556 484.966 244.381 483.503 245.682Z" fill="#FFB6B6"/>
<path d="M458.458 157.93C431.699 172.26 419.972 204.204 403.554 232.277C403.215 235.344 403.518 238.448 404.445 241.391C405.371 244.334 406.9 247.051 408.934 249.369C410.968 251.686 413.462 253.552 416.256 254.848C419.051 256.145 422.085 256.842 425.164 256.897L457.282 257.638L453.256 237.779L442.513 231.663L455.211 200.881L458.458 157.93Z" fill="#E6E6E6"/>
<path d="M498.125 188.955L523.74 220.103L513.161 236.899C513.161 236.899 487.406 196.55 486.825 195.154C484.921 194.709 483.196 193.695 481.879 192.246C480.562 190.797 479.715 188.982 479.45 187.041C479.185 185.099 479.515 183.122 480.395 181.372C481.276 179.623 482.666 178.182 484.381 177.241C486.096 176.299 488.056 175.902 490.002 176.102C491.947 176.301 493.786 177.088 495.276 178.357C496.766 179.627 497.836 181.32 498.344 183.212C498.853 185.105 498.776 187.107 498.125 188.955Z" fill="#FFB6B6"/>
<path d="M536.732 158.727C544.463 154.446 567.014 220.474 543.284 258.027C540.576 259.497 537.592 260.384 534.523 260.632C531.453 260.88 528.366 260.483 525.458 259.467C522.55 258.451 519.885 256.839 517.635 254.732C515.384 252.626 513.597 250.072 512.388 247.234L500.104 217.107L519.786 210.819L529.185 221.628L527.877 200.124L539.065 169.562L536.732 158.727Z" fill="#E6E6E6"/>
<path d="M292.031 337.106C312.357 337.106 328.835 320.593 328.835 300.224C328.835 279.855 312.357 263.342 292.031 263.342C271.704 263.342 255.226 279.855 255.226 300.224C255.226 320.593 271.704 337.106 292.031 337.106Z" fill="#8CD7D2"/>
<path d="M309.125 297.125C310.385 297.125 311.593 297.625 312.484 298.516C313.375 299.407 313.875 300.615 313.875 301.875V335.125C313.875 336.385 313.375 337.593 312.484 338.484C311.593 339.375 310.385 339.875 309.125 339.875H275.875C274.615 339.875 273.407 339.375 272.516 338.484C271.625 337.593 271.125 336.385 271.125 335.125V301.875C271.125 300.615 271.625 299.407 272.516 298.516C273.407 297.625 274.615 297.125 275.875 297.125H309.125ZM307.938 333.938V321.35C307.938 319.297 307.122 317.327 305.67 315.875C304.218 314.423 302.248 313.607 300.195 313.607C298.176 313.607 295.825 314.842 294.685 316.695V314.059H288.059V333.938H294.685V322.229C294.685 320.4 296.158 318.904 297.986 318.904C298.868 318.904 299.714 319.254 300.337 319.878C300.961 320.501 301.311 321.347 301.311 322.229V333.938H307.938ZM280.34 310.33C281.398 310.33 282.413 309.91 283.161 309.161C283.91 308.413 284.33 307.398 284.33 306.34C284.33 304.131 282.549 302.326 280.34 302.326C279.275 302.326 278.255 302.749 277.502 303.502C276.749 304.255 276.326 305.275 276.326 306.34C276.326 308.549 278.131 310.33 280.34 310.33ZM283.641 333.938V314.059H277.062V333.938H283.641Z" fill="white"/>
<path d="M206.035 231.485C226.361 231.485 242.839 214.973 242.839 194.603C242.839 174.234 226.361 157.722 206.035 157.722C185.708 157.722 169.23 174.234 169.23 194.603C169.23 214.973 185.708 231.485 206.035 231.485Z" fill="#8CD7D2"/>
<path d="M186 232C184.625 232 183.448 231.51 182.468 230.53C181.488 229.55 180.998 228.373 181 227V197C181 195.625 181.49 194.448 182.47 193.468C183.45 192.488 184.627 191.998 186 192H226C227.375 192 228.553 192.49 229.533 193.47C230.513 194.45 231.002 195.627 231 197V227C231 228.375 230.51 229.553 229.53 230.533C228.55 231.513 227.373 232.002 226 232H186ZM206 214.5L226 202V197L206 209.5L186 197V202L206 214.5Z" fill="white"/>
</g>
<defs>
<filter id="filter0_d_1065_7" x="0" y="0" width="375" height="375" filterUnits="userSpaceOnUse" color-interpolation-filters="sRGB">
<feFlood flood-opacity="0" result="BackgroundImageFix"/>
<feColorMatrix in="SourceAlpha" type="matrix" values="0 0 0 0 0 0 0 0 0 0 0 0 0 0 0 0 0 0 127 0" result="hardAlpha"/>
<feOffset/>
<feGaussianBlur stdDeviation="7.5"/>
<feComposite in2="hardAlpha" operator="out"/>
<feColorMatrix type="matrix" values="0 0 0 0 0.72549 0 0 0 0 0.690196 0 0 0 0 0.643137 0 0 0 0.2 0"/>
<feBlend mode="normal" in2="BackgroundImageFix" result="effect1_dropShadow_1065_7"/>
<feBlend mode="normal" in="SourceGraphic" in2="effect1_dropShadow_1065_7" result="shape"/>
</filter>
<clipPath id="clip0_1065_7">
<rect width="615" height="445" fill="white" transform="translate(15 48)"/>
</clipPath>
</defs>
</svg>
