<svg width="538" height="538" viewBox="0 0 538 538" fill="none" xmlns="http://www.w3.org/2000/svg">
<g filter="url(#filter0_d_953_108)">
<rect x="90" y="82.4183" width="433" height="440.582" fill="#E9C4B1"/>
</g>
<g clip-path="url(#clip0_953_108)">
<path d="M475.775 239.114C475.806 266.327 471.206 293.345 462.174 318.999C462.169 319.016 462.163 319.027 462.157 319.044C462.118 319.163 462.078 319.271 462.033 319.391V319.396C460.106 324.837 457.989 330.188 455.682 335.447C449.861 348.71 442.852 361.413 434.741 373.399C432.775 376.318 430.738 379.19 428.633 382.015C426.316 385.139 423.926 388.2 421.462 391.199C419.191 393.965 416.859 396.678 414.467 399.338C411.625 402.507 408.698 405.595 405.686 408.601C398.598 415.697 391.071 422.336 383.152 428.48C381.762 429.565 380.356 430.631 378.936 431.678C375.631 434.131 372.259 436.498 368.822 438.777C361.261 443.801 353.418 448.383 345.332 452.499C343.937 453.215 342.53 453.919 341.117 454.601C335.653 457.253 330.078 459.694 324.392 461.922C322.77 462.564 321.143 463.183 319.498 463.779C319.221 463.887 318.944 463.989 318.662 464.086C299.164 471.16 278.824 475.624 258.167 477.365C256.732 477.496 255.295 477.605 253.856 477.694C252.33 477.802 250.803 477.889 249.273 477.956C248.064 478.018 246.861 478.064 245.646 478.098C245.397 478.109 245.143 478.12 244.894 478.12C243.261 478.171 241.622 478.204 239.978 478.217C239.283 478.223 238.588 478.228 237.887 478.228C237.56 478.228 237.232 478.228 236.904 478.223C232.164 478.206 227.459 478.05 222.789 477.757C222.693 477.751 222.597 477.74 222.501 477.74C220.829 477.626 219.162 477.507 217.5 477.359C211.584 476.859 205.732 476.14 199.944 475.201C198.611 474.991 197.281 474.764 195.955 474.519C190.197 473.497 184.514 472.265 178.907 470.822C177.24 470.396 175.583 469.951 173.935 469.487C164.423 466.827 155.087 463.568 145.982 459.73C140.755 457.526 135.626 455.144 130.595 452.585C128.329 451.432 126.086 450.243 123.865 449.018C123.261 448.688 122.662 448.353 122.063 448.018C117.689 445.564 113.406 442.978 109.213 440.26C105.778 438.039 102.406 435.729 99.099 433.33C98.6922 433.046 98.291 432.751 97.8898 432.456C95.3527 430.599 92.857 428.694 90.4029 426.742C85.0631 422.488 79.9136 418.018 74.9543 413.332C71.5244 410.095 68.1944 406.755 64.9641 403.313C46.1426 383.306 30.8945 360.186 19.8898 334.97C17.5505 329.603 15.4033 324.137 13.4482 318.573C13.4418 318.56 13.438 318.547 13.4369 318.533C4.51466 293.016 -0.0290119 266.161 -0.000107096 239.114C-0.000107096 138.72 61.5569 52.7755 148.801 17.3344C179.893 4.75749 213.273 -1.09186 246.765 0.167626C280.257 1.42711 313.109 9.76717 343.18 24.6441C421.745 63.6805 475.775 145.059 475.775 239.114Z" fill="#F2F2F2"/>
<path d="M343.18 24.6441V326.808H148.801V17.3344C179.893 4.75748 213.274 -1.09188 246.766 0.16761C280.257 1.4271 313.109 9.76715 343.18 24.6441Z" fill="white"/>
<path d="M195.577 162.438C200.85 153.672 207.099 144.312 216.884 141.45C228.216 138.135 239.857 144.72 249.731 151.218C279.261 170.652 307.699 191.712 334.914 214.303L334.884 214.643C313.696 213.174 292.508 211.706 271.32 210.237C256.011 209.176 240.177 207.968 226.649 200.689C221.515 197.927 216.511 194.237 210.694 193.98C203.466 193.661 197.165 198.734 192.212 204.035C162.918 235.391 154.441 283.341 121.575 310.889C142.299 259.516 167.044 209.877 195.577 162.438Z" fill="#F2F2F2"/>
<path d="M357.397 32.3511C356.906 32.0217 356.408 31.7093 355.917 31.3913C341.706 22.256 326.475 14.8345 310.537 9.28031L306.842 60.5223H283.415V1.80019C281.94 1.49348 280.454 1.20382 278.968 0.931198V60.5223H251.128C235.801 60.5223 221.103 54.4026 210.265 43.5093C199.428 32.6161 193.34 17.8417 193.34 2.43638C191.848 2.76012 190.367 3.10652 188.887 3.4757V60.5223H166.211L162.691 11.6601C146.313 17.9738 130.764 26.2766 116.391 36.3837C116.142 36.5541 115.893 36.7302 115.65 36.9006C114.402 37.7809 113.17 38.6783 111.944 39.5871V324.814H178.773L177.592 308.372L171.093 128.355H301.954L295.456 308.372L294.275 324.814H360.364V34.3277C359.381 33.6575 358.392 32.9986 357.397 32.3511ZM188.887 113.445H170.02L166.533 64.9979H188.887V113.445ZM278.968 113.445H247.28V112.486C247.28 112.024 247.189 111.567 247.013 111.141C246.837 110.715 246.58 110.328 246.255 110.002C245.93 109.676 245.544 109.417 245.12 109.241C244.696 109.065 244.241 108.975 243.782 108.976H230.006C229.547 108.975 229.093 109.066 228.669 109.242C228.246 109.419 227.861 109.677 227.536 110.003C227.212 110.329 226.955 110.716 226.779 111.142C226.604 111.568 226.514 112.025 226.514 112.486V113.445H193.34V64.9979H278.968V113.445ZM283.415 113.445V64.9979H306.52L303.033 113.445H283.415Z" fill="#3F3D56"/>
<path d="M462.175 318.997C462.169 319.015 462.164 319.026 462.158 319.043C462.118 319.162 462.079 319.27 462.034 319.389V319.395C460.107 324.836 457.99 330.186 455.682 335.446L19.8904 334.969C17.5511 329.601 15.4039 324.136 13.4488 318.571C13.4425 318.559 13.4386 318.546 13.4375 318.532L462.175 318.997Z" fill="#3F3D56"/>
<path d="M299.315 320.866H223.033V331.089H299.315V320.866Z" fill="white"/>
<path d="M122.057 420.983C122.329 418.58 122.703 416.193 123.182 413.821C125.797 400.958 131.409 388.901 139.557 378.641C144.219 378.902 148.304 378.187 148.694 369.11C148.767 367.497 149.96 366.095 150.22 364.504C149.779 364.567 149.321 364.601 148.88 364.629C148.739 364.635 148.592 364.646 148.457 364.652H148.406C147.916 364.675 147.431 364.555 147.008 364.307C146.585 364.058 146.243 363.692 146.022 363.253C145.802 362.813 145.712 362.319 145.765 361.829C145.818 361.34 146.011 360.876 146.321 360.494C146.513 360.261 146.705 360.023 146.897 359.784C147.185 359.415 147.485 359.057 147.779 358.694C147.812 358.654 147.841 358.62 147.875 358.58C148.208 358.166 148.541 357.751 148.88 357.336C148.268 356.381 147.444 355.58 146.473 354.996C143.111 353.014 138.472 354.389 136.042 357.444C133.607 360.5 133.144 364.794 133.991 368.611C134.715 371.882 136.291 374.881 138.06 377.732C137.879 377.965 137.687 378.192 137.506 378.431C134.173 382.74 131.268 387.366 128.832 392.244C129.522 386.831 121.097 367.293 117.836 363.152C113.921 358.183 105.897 360.352 105.207 366.657C105.202 366.714 105.19 366.776 105.185 366.839C105.671 367.111 106.145 367.401 106.609 367.713C107.191 368.104 107.642 368.663 107.903 369.316C108.163 369.969 108.222 370.686 108.07 371.373C107.919 372.06 107.565 372.685 107.054 373.166C106.543 373.647 105.899 373.962 105.207 374.069L105.134 374.08C98.6584 383.378 119.424 407.579 124.628 402.149C123.32 405.845 122.276 409.629 121.504 413.474C120.811 416.866 120.327 420.297 120.057 423.749C119.727 428.096 119.748 432.463 120.119 436.806C120.109 436.756 120.101 436.705 120.097 436.653C118.938 427.191 99.1218 413.122 93.3356 414.292C90.0018 414.968 86.7188 414.815 87.2274 418.194C87.233 418.251 87.2444 418.302 87.25 418.359C88.1486 418.723 89.0225 419.146 89.8662 419.625C90.3521 419.898 90.8268 420.193 91.2901 420.5C91.8351 420.866 92.266 421.38 92.5332 421.982C92.8003 422.584 92.8929 423.249 92.8001 423.902C92.7074 424.554 92.4332 425.167 92.0091 425.669C91.585 426.172 91.0283 426.544 90.403 426.742C92.861 428.69 95.3567 430.595 97.89 432.456C98.2912 432.751 98.6924 433.046 99.0992 433.33C102.405 435.727 105.776 438.037 109.214 440.26C113.406 442.975 117.689 445.561 122.063 448.018C122.662 448.353 123.261 448.688 123.865 449.018C122.345 442.731 121.575 436.285 121.571 429.815C121.57 426.864 121.732 423.915 122.057 420.983ZM125.148 400.689L125.159 400.672C125.159 400.683 125.155 400.693 125.148 400.701V400.689ZM120.645 441.532L120.47 441.14C120.475 440.85 120.475 440.566 120.47 440.271C120.47 440.192 120.453 440.112 120.453 440.032C120.52 440.538 120.577 441.043 120.65 441.549L120.645 441.532ZM146.598 442.304C146.66 442.043 146.711 441.861 146.773 441.6C146.75 441.543 146.728 441.486 146.705 441.435C144.823 436.931 134.89 446.013 130.595 452.585C135.624 455.14 140.753 457.522 145.982 459.73C146.332 459.287 146.694 458.849 147.05 458.406C147.084 458.366 147.112 458.332 147.14 458.293C147.909 457.338 148.683 456.396 149.445 455.441C149.451 455.254 149.451 455.067 149.451 454.885C149.444 452.149 149.11 449.424 148.457 446.769C147.932 446.793 147.412 446.654 146.968 446.372C146.524 446.09 146.177 445.677 145.974 445.19C145.771 444.703 145.722 444.165 145.834 443.648C145.945 443.132 146.212 442.663 146.598 442.304Z" fill="white"/>
<path d="M268.829 324.096C270.185 325.037 271.731 325.667 273.356 325.943C274.981 326.218 276.647 326.132 278.235 325.69C279.824 325.248 281.297 324.462 282.55 323.386C283.804 322.31 284.807 320.972 285.49 319.464L325.38 323.214L315.587 304.747L279.208 304.017C276.612 303.032 273.747 303.038 271.155 304.034C268.563 305.03 266.425 306.948 265.146 309.423C263.866 311.898 263.534 314.758 264.213 317.463C264.892 320.167 266.534 322.528 268.829 324.096Z" fill="#FFB6B6"/>
<path d="M309.277 322.832L364.477 329.053L364.667 328.808C365.031 328.34 401.15 281.868 407.219 270.805C410.952 264.159 412.312 256.428 411.072 248.898L411.031 248.714L410.887 248.592C407.945 246.113 404.249 244.716 400.411 244.632C396.572 244.547 392.82 245.78 389.772 248.126C375.116 259.536 363.299 274.212 355.254 290.998L350.688 300.552L309.277 304.658V322.832Z" fill="#8CD7D2"/>
<path d="M264.492 452.807L253.857 477.696C252.332 477.804 250.804 477.891 249.275 477.957C248.066 478.019 246.862 478.065 245.647 478.099L245.235 478.23L244.896 478.122C243.263 478.173 241.624 478.205 239.98 478.218C239.285 478.224 238.59 478.23 237.889 478.23C237.561 478.23 237.233 478.23 236.906 478.224L237.612 475.793L238.443 472.913L241.743 461.509L246.506 445.043L253.592 448.099L264.492 452.807Z" fill="#FFB6B6"/>
<path d="M341.118 454.602C335.654 457.255 330.079 459.695 324.393 461.923L318.833 452.523L336.756 444.612L341.118 454.602Z" fill="#FFB6B6"/>
<path d="M378.938 411.88V431.679C375.632 434.133 372.261 436.499 368.823 438.779V411.88H378.938Z" fill="#CACACA"/>
<path d="M414.468 399.339C411.626 402.508 408.699 405.596 405.687 408.603C398.599 415.698 391.073 422.338 383.153 428.481H338.062C336.865 428.482 335.681 428.225 334.591 427.728C333.5 427.232 332.528 426.507 331.739 425.602L331.733 425.585C330.793 424.518 330.139 423.228 329.835 421.836L329.829 421.825C329.701 421.227 329.637 420.618 329.637 420.007V407.813C329.638 405.567 330.526 403.413 332.106 401.825C333.685 400.236 335.827 399.342 338.062 399.339H414.468Z" fill="#3F3D56"/>
<path d="M433.047 351.743L428.16 372.792C428.637 375.842 428.797 378.933 428.634 382.016C426.317 385.14 423.927 388.201 421.464 391.2C419.192 393.966 416.86 396.679 414.468 399.339C411.626 402.508 408.699 405.596 405.687 408.603C397.844 411.079 388.6 412.09 378.938 412.158C375.604 412.186 372.219 412.096 368.823 411.914C355.053 411.187 341.124 408.966 329.716 406.66C326.699 406.058 323.862 405.445 321.251 404.848C316.307 403.729 312.171 402.684 309.176 401.889C305.803 401.003 303.882 400.429 303.882 400.429L291.049 422.029L279.398 441.635L264.384 460.895C262.949 461.026 261.512 461.136 260.073 461.225C258.547 461.333 257.02 461.42 255.49 461.486C254.281 461.548 253.078 461.594 251.863 461.628L251.45 461.759L251.111 461.651L245.664 459.907L243.828 459.322L237.222 457.209C237.222 457.209 238.697 452.54 241.279 444.754C242.229 441.897 248.953 420.774 255.988 402.332C258.073 396.857 260.231 391.302 262.452 385.776C264.271 381.238 266.125 376.717 268.001 372.258C271.261 364.528 287.015 360.359 305.565 358.173C306.509 358.065 307.458 357.957 308.413 357.855C317.867 356.855 327.896 356.338 337.276 356.1C341.972 355.98 346.504 355.935 350.719 355.929C352.081 355.929 353.405 355.933 354.691 355.941H354.697C358.172 355.958 361.37 356.009 364.184 356.066C364.732 356.077 365.263 356.094 365.783 356.105H365.789C366.139 356.111 366.484 356.122 366.823 356.128C372.976 356.287 376.751 356.48 376.751 356.48L378.214 344.939L378.514 342.61L378.796 340.395V340.39L378.83 340.111L379.062 340.106L383.13 340.026L417.327 339.356L431.893 338.736L433.047 351.743Z" fill="#2F2E41"/>
<path d="M340.248 445.117C338.853 445.833 337.446 446.537 336.033 447.219C330.569 449.871 324.994 452.311 319.307 454.54C317.686 455.181 316.058 455.801 314.414 456.397C314.233 456.141 314.047 455.886 313.86 455.63C306.017 444.81 301.135 437.915 291.049 422.029C286.828 415.384 282.585 408.455 278.465 401.378L308.289 387.383L311.634 385.816L321.251 404.848L329.829 421.825L331.739 425.602L340.248 445.117Z" fill="#2F2E41"/>
<path d="M388.624 215.858C403.799 215.858 416.1 203.493 416.1 188.24C416.1 172.988 403.799 160.623 388.624 160.623C373.449 160.623 361.148 172.988 361.148 188.24C361.148 203.493 373.449 215.858 388.624 215.858Z" fill="#FFB6B6"/>
<path d="M437.67 274.085C437.444 251.276 438.11 257.881 436.313 250.026C431.488 228.909 411.457 225.058 407.965 224.581C407.593 223.586 407.021 222.678 406.285 221.914C405.549 221.151 404.665 220.547 403.687 220.142C402.709 219.737 401.659 219.538 400.601 219.558C399.543 219.578 398.501 219.817 397.539 220.259L390.854 223.744C384.373 226.726 388.306 231.033 386.069 237.832L383.718 245.045L364.456 298.565L368.354 318.926L368.36 318.938L370.988 332.654L378.778 341.575L378.633 340.151L378.458 340.424L378.452 340.429L378 341.105C378.627 341.452 379.249 341.793 379.859 342.133C381.441 343.008 382.984 343.866 384.487 344.706C384.848 344.911 385.204 345.109 385.56 345.314H385.566C385.792 345.439 386.018 345.564 386.238 345.689C391.878 348.858 371.005 354.629 375.644 357.338C376.288 357.713 376.926 358.088 377.554 358.457C398.913 371.014 415.955 386.656 421.464 391.2C423.928 388.201 426.318 385.14 428.634 382.016C430.736 379.193 432.772 376.321 434.743 373.4C435.087 371.117 435.319 368.833 435.545 366.596C435.816 363.904 434.404 338.964 434.878 336.221C435.087 335.005 434.285 333.852 433.511 332.739C432.793 331.7 432.115 330.723 432.256 329.803C432.403 328.854 433.443 327.821 434.454 326.815C435.556 325.713 436.698 324.577 436.862 323.379C437.314 320.039 435.455 316.688 435.805 313.326C436.381 307.857 436.824 302.37 437.133 296.866C437.568 289.267 437.747 281.673 437.67 274.085Z" fill="#8CD7D2"/>
<path d="M282.695 330.024C283.829 328.822 285.212 327.885 286.746 327.279C288.28 326.672 289.927 326.411 291.572 326.513C293.217 326.616 294.82 327.08 296.267 327.872C297.714 328.665 298.971 329.767 299.949 331.1L338.21 319.155L332.42 339.256L296.974 347.518C294.637 349.021 291.832 349.609 289.091 349.172C286.35 348.735 283.865 347.303 282.104 345.146C280.344 342.99 279.432 340.26 279.541 337.472C279.65 334.685 280.772 332.035 282.695 330.024Z" fill="#FFB6B6"/>
<path d="M329.08 341.144L400.098 326.427L381.667 331.016C381.876 330.461 402.59 275.286 405.106 262.909C406.702 255.446 405.71 247.66 402.296 240.842L402.202 240.679L402.028 240.605C398.485 239.119 394.543 238.892 390.854 239.96C387.165 241.028 383.947 243.328 381.733 246.48C371.122 261.758 364.188 279.306 361.48 297.739L359.952 308.225L334.914 315.754L329.08 341.144Z" fill="#8CD7D2"/>
<path d="M196.73 318.669C196.979 319.398 197.452 320.028 198.079 320.47C198.707 320.912 199.458 321.143 200.224 321.129L215.194 320.742C215.965 320.727 216.712 320.461 217.321 319.984C217.93 319.508 218.369 318.845 218.573 318.097L220.691 295.329C221.443 295.671 222.261 295.84 223.086 295.823C224.533 295.787 225.907 295.174 226.905 294.119C227.903 293.065 228.443 291.655 228.406 290.2C228.37 288.745 227.76 287.364 226.711 286.361C225.662 285.358 224.259 284.816 222.812 284.852C222.482 284.851 222.153 284.885 221.831 284.955C221.48 284.573 221.054 284.27 220.58 284.064C220.105 283.859 219.593 283.755 219.077 283.76L196.051 284.358C195.86 284.365 195.67 284.389 195.483 284.429C194.978 284.523 194.499 284.726 194.078 285.022C193.657 285.318 193.305 285.702 193.044 286.146C192.783 286.591 192.62 287.087 192.566 287.6C192.511 288.114 192.567 288.633 192.729 289.123L196.73 318.669ZM221.126 293.783L222.633 288.357C222.805 287.73 222.809 287.069 222.645 286.44C222.718 286.44 222.782 286.405 222.855 286.405C223.889 286.384 224.889 286.775 225.636 287.494C226.383 288.212 226.816 289.199 226.84 290.237C226.864 291.276 226.477 292.282 225.765 293.035C225.052 293.788 224.072 294.226 223.038 294.253C222.37 294.274 221.709 294.111 221.126 293.783Z" fill="#2F2E41"/>
<path d="M195.483 284.429C195.973 287.248 201.489 289.23 208.121 288.886C214.219 288.603 219.205 286.451 220.119 283.9C219.781 283.799 219.429 283.752 219.077 283.76L196.051 284.358C195.86 284.365 195.67 284.389 195.483 284.429Z" fill="#3F3D56"/>
<path d="M95.3486 263.817V312.494C95.3491 313.115 95.5945 313.709 96.0309 314.148C96.4673 314.587 97.059 314.833 97.6761 314.834H169.441C170.058 314.833 170.649 314.587 171.086 314.148C171.522 313.709 171.768 313.115 171.768 312.494V263.817C171.767 263.198 171.521 262.604 171.085 262.166C170.648 261.728 170.057 261.481 169.441 261.48H97.6761C97.0595 261.481 96.4684 261.728 96.0321 262.166C95.5959 262.604 95.3501 263.198 95.3486 263.817Z" fill="#3F3D56"/>
<path d="M97.0322 264.423V311.894C97.0328 312.225 97.164 312.543 97.3972 312.777C97.6304 313.012 97.9464 313.144 98.2761 313.144H168.843C169.173 313.144 169.489 313.012 169.722 312.777C169.955 312.543 170.086 312.225 170.087 311.894V264.423C170.087 264.091 169.956 263.773 169.723 263.538C169.49 263.303 169.173 263.171 168.843 263.17H98.2762C97.946 263.171 97.6297 263.303 97.3965 263.538C97.1633 263.773 97.0323 264.091 97.0322 264.423Z" fill="#8CD7D2"/>
<path d="M93.8479 321.988C93.9794 322.153 94.1465 322.287 94.3367 322.378C94.5269 322.47 94.7353 322.517 94.9461 322.516H171.789C171.999 322.516 172.206 322.468 172.396 322.377C172.586 322.286 172.753 322.154 172.885 321.99C173.018 321.826 173.112 321.634 173.161 321.429C173.211 321.224 173.214 321.01 173.171 320.803L171.978 315.108C171.929 314.876 171.822 314.659 171.669 314.479C171.515 314.299 171.319 314.16 171.098 314.075C170.938 314.012 170.768 313.98 170.596 313.98H96.1342C95.9625 313.98 95.7923 314.012 95.6325 314.075C95.4117 314.16 95.2155 314.299 95.0617 314.479C94.9079 314.659 94.8015 314.876 94.752 315.108L93.5592 320.803C93.5168 321.01 93.5207 321.223 93.5706 321.428C93.6206 321.633 93.7153 321.824 93.8479 321.988Z" fill="#2F2E41"/>
<path d="M167.959 316.433H169.774C169.927 316.433 170.05 316.309 170.05 316.156V315.283C170.05 315.13 169.927 315.006 169.774 315.006H167.959C167.807 315.006 167.684 315.13 167.684 315.283V316.156C167.684 316.309 167.807 316.433 167.959 316.433Z" fill="#3F3D56"/>
<path d="M163.226 316.433H165.041C165.193 316.433 165.317 316.309 165.317 316.156V315.283C165.317 315.13 165.193 315.006 165.041 315.006H163.226C163.073 315.006 162.95 315.13 162.95 315.283V316.156C162.95 316.309 163.073 316.433 163.226 316.433Z" fill="#3F3D56"/>
<path d="M158.492 316.433H160.307C160.46 316.433 160.583 316.309 160.583 316.156V315.283C160.583 315.13 160.46 315.006 160.307 315.006H158.492C158.34 315.006 158.217 315.13 158.217 315.283V316.156C158.217 316.309 158.34 316.433 158.492 316.433Z" fill="#3F3D56"/>
<path d="M153.759 316.433H155.574C155.726 316.433 155.85 316.309 155.85 316.156V315.283C155.85 315.13 155.726 315.006 155.574 315.006H153.759C153.607 315.006 153.483 315.13 153.483 315.283V316.156C153.483 316.309 153.607 316.433 153.759 316.433Z" fill="#3F3D56"/>
<path d="M149.026 316.433H150.841C150.993 316.433 151.116 316.309 151.116 316.156V315.283C151.116 315.13 150.993 315.006 150.841 315.006H149.026C148.873 315.006 148.75 315.13 148.75 315.283V316.156C148.75 316.309 148.873 316.433 149.026 316.433Z" fill="#3F3D56"/>
<path d="M144.292 316.433H146.107C146.259 316.433 146.383 316.309 146.383 316.156V315.283C146.383 315.13 146.259 315.006 146.107 315.006H144.292C144.14 315.006 144.016 315.13 144.016 315.283V316.156C144.016 316.309 144.14 316.433 144.292 316.433Z" fill="#3F3D56"/>
<path d="M139.559 316.433H141.374C141.526 316.433 141.649 316.309 141.649 316.156V315.283C141.649 315.13 141.526 315.006 141.374 315.006H139.559C139.406 315.006 139.283 315.13 139.283 315.283V316.156C139.283 316.309 139.406 316.433 139.559 316.433Z" fill="#3F3D56"/>
<path d="M134.825 316.433H136.64C136.793 316.433 136.916 316.309 136.916 316.156V315.283C136.916 315.13 136.793 315.006 136.64 315.006H134.825C134.673 315.006 134.549 315.13 134.549 315.283V316.156C134.549 316.309 134.673 316.433 134.825 316.433Z" fill="#3F3D56"/>
<path d="M130.092 316.433H131.907C132.059 316.433 132.183 316.309 132.183 316.156V315.283C132.183 315.13 132.059 315.006 131.907 315.006H130.092C129.939 315.006 129.816 315.13 129.816 315.283V316.156C129.816 316.309 129.939 316.433 130.092 316.433Z" fill="#3F3D56"/>
<path d="M125.358 316.433H127.173C127.326 316.433 127.449 316.309 127.449 316.156V315.283C127.449 315.13 127.326 315.006 127.173 315.006H125.358C125.206 315.006 125.083 315.13 125.083 315.283V316.156C125.083 316.309 125.206 316.433 125.358 316.433Z" fill="#3F3D56"/>
<path d="M120.625 316.433H122.44C122.592 316.433 122.716 316.309 122.716 316.156V315.283C122.716 315.13 122.592 315.006 122.44 315.006H120.625C120.473 315.006 120.349 315.13 120.349 315.283V316.156C120.349 316.309 120.473 316.433 120.625 316.433Z" fill="#3F3D56"/>
<path d="M115.891 316.433H117.706C117.859 316.433 117.982 316.309 117.982 316.156V315.283C117.982 315.13 117.859 315.006 117.706 315.006H115.891C115.739 315.006 115.615 315.13 115.615 315.283V316.156C115.615 316.309 115.739 316.433 115.891 316.433Z" fill="#3F3D56"/>
<path d="M111.158 316.433H112.973C113.125 316.433 113.249 316.309 113.249 316.156V315.283C113.249 315.13 113.125 315.006 112.973 315.006H111.158C111.006 315.006 110.882 315.13 110.882 315.283V316.156C110.882 316.309 111.006 316.433 111.158 316.433Z" fill="#3F3D56"/>
<path d="M106.425 316.433H108.24C108.392 316.433 108.515 316.309 108.515 316.156V315.283C108.515 315.13 108.392 315.006 108.24 315.006H106.425C106.272 315.006 106.149 315.13 106.149 315.283V316.156C106.149 316.309 106.272 316.433 106.425 316.433Z" fill="#3F3D56"/>
<path d="M101.691 316.433H103.506C103.658 316.433 103.782 316.309 103.782 316.156V315.283C103.782 315.13 103.658 315.006 103.506 315.006H101.691C101.539 315.006 101.415 315.13 101.415 315.283V316.156C101.415 316.309 101.539 316.433 101.691 316.433Z" fill="#3F3D56"/>
<path d="M96.9577 316.433H98.7727C98.9251 316.433 99.0486 316.309 99.0486 316.156V315.283C99.0486 315.13 98.9251 315.006 98.7727 315.006H96.9577C96.8054 315.006 96.6819 315.13 96.6819 315.283V316.156C96.6819 316.309 96.8054 316.433 96.9577 316.433Z" fill="#3F3D56"/>
<path d="M168.015 318.812H169.83C169.982 318.812 170.106 318.688 170.106 318.535V317.662C170.106 317.509 169.982 317.385 169.83 317.385H168.015C167.863 317.385 167.739 317.509 167.739 317.662V318.535C167.739 318.688 167.863 318.812 168.015 318.812Z" fill="#3F3D56"/>
<path d="M163.282 318.812H165.097C165.249 318.812 165.373 318.688 165.373 318.535V317.662C165.373 317.509 165.249 317.385 165.097 317.385H163.282C163.129 317.385 163.006 317.509 163.006 317.662V318.535C163.006 318.688 163.129 318.812 163.282 318.812Z" fill="#3F3D56"/>
<path d="M158.548 318.812H160.363C160.516 318.812 160.639 318.688 160.639 318.535V317.662C160.639 317.509 160.516 317.385 160.363 317.385H158.548C158.396 317.385 158.272 317.509 158.272 317.662V318.535C158.272 318.688 158.396 318.812 158.548 318.812Z" fill="#3F3D56"/>
<path d="M153.815 318.812H155.63C155.782 318.812 155.906 318.688 155.906 318.535V317.662C155.906 317.509 155.782 317.385 155.63 317.385H153.815C153.663 317.385 153.539 317.509 153.539 317.662V318.535C153.539 318.688 153.663 318.812 153.815 318.812Z" fill="#3F3D56"/>
<path d="M149.082 318.812H150.897C151.049 318.812 151.172 318.688 151.172 318.535V317.662C151.172 317.509 151.049 317.385 150.897 317.385H149.082C148.929 317.385 148.806 317.509 148.806 317.662V318.535C148.806 318.688 148.929 318.812 149.082 318.812Z" fill="#3F3D56"/>
<path d="M144.348 318.812H146.163C146.315 318.812 146.439 318.688 146.439 318.535V317.662C146.439 317.509 146.315 317.385 146.163 317.385H144.348C144.196 317.385 144.072 317.509 144.072 317.662V318.535C144.072 318.688 144.196 318.812 144.348 318.812Z" fill="#3F3D56"/>
<path d="M139.614 318.812H141.429C141.582 318.812 141.705 318.688 141.705 318.535V317.662C141.705 317.509 141.582 317.385 141.429 317.385H139.614C139.462 317.385 139.339 317.509 139.339 317.662V318.535C139.339 318.688 139.462 318.812 139.614 318.812Z" fill="#3F3D56"/>
<path d="M134.881 318.812H136.696C136.848 318.812 136.972 318.688 136.972 318.535V317.662C136.972 317.509 136.848 317.385 136.696 317.385H134.881C134.729 317.385 134.605 317.509 134.605 317.662V318.535C134.605 318.688 134.729 318.812 134.881 318.812Z" fill="#3F3D56"/>
<path d="M130.148 318.812H131.963C132.115 318.812 132.239 318.688 132.239 318.535V317.662C132.239 317.509 132.115 317.385 131.963 317.385H130.148C129.995 317.385 129.872 317.509 129.872 317.662V318.535C129.872 318.688 129.995 318.812 130.148 318.812Z" fill="#3F3D56"/>
<path d="M125.414 318.812H127.229C127.382 318.812 127.505 318.688 127.505 318.535V317.662C127.505 317.509 127.382 317.385 127.229 317.385H125.414C125.262 317.385 125.138 317.509 125.138 317.662V318.535C125.138 318.688 125.262 318.812 125.414 318.812Z" fill="#3F3D56"/>
<path d="M120.681 318.812H122.496C122.648 318.812 122.772 318.688 122.772 318.535V317.662C122.772 317.509 122.648 317.385 122.496 317.385H120.681C120.529 317.385 120.405 317.509 120.405 317.662V318.535C120.405 318.688 120.529 318.812 120.681 318.812Z" fill="#3F3D56"/>
<path d="M115.947 318.812H117.762C117.915 318.812 118.038 318.688 118.038 318.535V317.662C118.038 317.509 117.915 317.385 117.762 317.385H115.947C115.795 317.385 115.671 317.509 115.671 317.662V318.535C115.671 318.688 115.795 318.812 115.947 318.812Z" fill="#3F3D56"/>
<path d="M111.214 318.812H113.029C113.181 318.812 113.305 318.688 113.305 318.535V317.662C113.305 317.509 113.181 317.385 113.029 317.385H111.214C111.061 317.385 110.938 317.509 110.938 317.662V318.535C110.938 318.688 111.061 318.812 111.214 318.812Z" fill="#3F3D56"/>
<path d="M106.48 318.812H108.295C108.448 318.812 108.571 318.688 108.571 318.535V317.662C108.571 317.509 108.448 317.385 108.295 317.385H106.48C106.328 317.385 106.205 317.509 106.205 317.662V318.535C106.205 318.688 106.328 318.812 106.48 318.812Z" fill="#3F3D56"/>
<path d="M101.747 318.812H103.562C103.714 318.812 103.838 318.688 103.838 318.535V317.662C103.838 317.509 103.714 317.385 103.562 317.385H101.747C101.595 317.385 101.471 317.509 101.471 317.662V318.535C101.471 318.688 101.595 318.812 101.747 318.812Z" fill="#3F3D56"/>
<path d="M97.0136 318.812H98.8286C98.981 318.812 99.1045 318.688 99.1045 318.535V317.662C99.1045 317.509 98.981 317.385 98.8286 317.385H97.0136C96.8613 317.385 96.7378 317.509 96.7378 317.662V318.535C96.7378 318.688 96.8613 318.812 97.0136 318.812Z" fill="#3F3D56"/>
<path d="M128.728 321.667H147.11C147.262 321.667 147.385 321.543 147.385 321.39V320.517C147.385 320.364 147.262 320.24 147.11 320.24H128.728C128.575 320.24 128.452 320.364 128.452 320.517V321.39C128.452 321.543 128.575 321.667 128.728 321.667Z" fill="#3F3D56"/>
<path d="M267.248 319.341L299.365 291.116C300.892 289.774 297.98 293.773 299.315 295.308C300.65 296.843 305.727 295.333 304.2 296.675L272.083 324.899L263.949 326.766L267.248 319.341Z" fill="#3F3D56"/>
<path d="M267.247 319.341L268.026 318.657C269.065 319.18 269.992 319.903 270.755 320.785C271.659 321.821 272.315 323.05 272.674 324.38L272.082 324.899L265.6 326.386L263.949 326.766L264.637 325.21L267.247 319.341Z" fill="#CCCCCC"/>
<path d="M264.637 325.211C264.878 325.317 265.091 325.479 265.258 325.683C265.425 325.888 265.542 326.128 265.6 326.386L263.949 326.766L264.637 325.211Z" fill="#3F3D56"/>
<path d="M476.804 228.879C473.775 233.434 468.927 236.587 463.706 238.149C461.585 238.783 459.395 239.157 457.185 239.262C456.912 236.749 456.259 234.294 455.247 231.98C455.35 234.443 455.009 236.904 454.241 239.245C450.922 239.056 447.677 238.182 444.709 236.677C438.917 233.696 434.459 227.993 433.47 221.524C432.306 213.97 435.713 206.553 436.945 199.01C438.182 191.467 435.86 181.914 428.514 179.932C422.92 178.421 423.548 179.074 418.897 182.545C423.734 189.734 405.867 216.08 398.555 213.783C394.421 212.484 391.775 208.671 390.921 208.671C385.175 218.622 395.995 235.388 385.09 238.87L385.988 237.967C392.571 229.828 378.812 212.601 385.395 204.462C387.232 202.185 389.187 199.487 388.644 196.607C388.13 193.87 383.807 192.422 382.542 194.671C384.819 189.428 381.457 182.431 375.891 181.085C370.947 179.886 371.037 181.363 366.076 182.005C365.752 179.85 365.146 177.747 364.273 175.752C364.364 177.902 364.115 180.053 363.533 182.124C361.781 182.09 360.088 181.475 358.719 180.375C354.673 177.098 355.492 170.214 359.103 166.46C362.719 162.705 368.093 161.354 373.218 160.479C374.708 150.051 403.333 148.963 407.127 159.383C408.743 151.602 418.434 147.563 425.966 149.977C433.498 152.391 438.725 159.462 441.477 166.914C444.228 174.36 444.997 182.374 446.692 190.133C448.387 197.891 451.252 205.791 457.151 211.079C463.05 216.361 472.662 218.111 478.878 213.203C480.838 218.315 479.827 224.319 476.804 228.879Z" fill="#2F2E41"/>
</g>
<defs>
<filter id="filter0_d_953_108" x="75" y="67.4183" width="463" height="470.582" filterUnits="userSpaceOnUse" color-interpolation-filters="sRGB">
<feFlood flood-opacity="0" result="BackgroundImageFix"/>
<feColorMatrix in="SourceAlpha" type="matrix" values="0 0 0 0 0 0 0 0 0 0 0 0 0 0 0 0 0 0 127 0" result="hardAlpha"/>
<feOffset/>
<feGaussianBlur stdDeviation="7.5"/>
<feComposite in2="hardAlpha" operator="out"/>
<feColorMatrix type="matrix" values="0 0 0 0 0.72549 0 0 0 0 0.690196 0 0 0 0 0.643137 0 0 0 0.2 0"/>
<feBlend mode="normal" in2="BackgroundImageFix" result="effect1_dropShadow_953_108"/>
<feBlend mode="normal" in="SourceGraphic" in2="effect1_dropShadow_953_108" result="shape"/>
</filter>
<clipPath id="clip0_953_108">
<rect width="479.885" height="478.23" fill="white"/>
</clipPath>
</defs>
</svg>
